#!OML:ASF G:\JayActor3\Patient Classification 1\Patient 1\Session 5\male.ASF
:FULLY-SPECIFIED
:DEGREES
419
root -11.4624 16.7241 -6.61581 620.258 -97.1819 -624.443
lowerback 0.701217 0.71103 8.47703
upperback 2.037 0.87573 0.467221
thorax 1.84551 0.558685 -4.25916
lowerneck -8.06617 -1.47825 0.841229
upperneck 4.18685 -2.31836 3.65161
head 2.78494 -1.01782 0.919669
rclavicle -5.03174e-016 0
rhumerus -26.9213 1.20175 -87.755
rradius 29.4432
rwrist 2.34018
rhand -18.9039 -5.46112
rfingers 7.12502
rthumb 7.39786 -35.3118
lclavicle -5.03174e-016 0
lhumerus -39.8703 10.8279 79.4864
lradius 25.5588
lwrist 11.3468
lhand -16.5179 14.6302
lfingers 7.12502
lthumb 9.70047 44.3868
rfemur 2.06064 1.10323 34.3963
rtibia 28.1964
rfoot -23.9135 -10.823
rtoes 4.93472
lfemur -25.1996 0.76205 -12.6521
ltibia 42.4871
lfoot -15.1432 14.2164
ltoes -15.2172
420
root -11.6254 16.7204 -6.61227 621.438 -97.2758 -625.475
lowerback 0.571655 0.768066 8.67786
upperback 2.04822 0.936991 0.448917
thorax 1.94378 0.597047 -4.38786
lowerneck -8.08443 -1.46972 0.841151
upperneck 4.20652 -2.30548 3.61763
head 2.79423 -1.01193 0.909239
rclavicle -7.89548e-015 3.61788e-014
rhumerus -26.5407 1.57615 -87.888
rradius 29.8221
rwrist 2.07321
rhand -19.0251 -5.41915
rfingers 7.12502
rthumb 7.28094 -35.2739
lclavicle -7.89548e-015 3.61788e-014
lhumerus -40.0184 10.8535 79.3716
lradius 25.7047
lwrist 11.4472
lhand -16.5732 14.759
lfingers 7.12502
lthumb 9.64715 44.5181
rfemur 2.99323 0.775975 34.4282
rtibia 27.3085
rfoot -23.9139 -10.5257
rtoes 4.86559
lfemur -25.553 0.97312 -12.7569
ltibia 40.1641
lfoot -15.0723 14.5186
ltoes -15.049
421
root -11.7893 16.7156 -6.60796 622.785 -97.4097 -626.656
lowerback 0.420835 0.83252 8.9215
upperback 2.05377 1.00494 0.4404
thorax 2.05055 0.639697 -4.52968
lowerneck -8.10277 -1.46216 0.838518
upperneck 4.2205 -2.29383 3.58942
head 2.80178 -1.00662 0.901058
rclavicle -1.18028e-016 -2.8625e-014
rhumerus -26.1816 1.92869 -88.0175
rradius 30.1999
rwrist 1.81442
rhand -19.1242 -5.3973
rfingers 7.12502
rthumb 7.18527 -35.2553
lclavicle -1.18028e-016 -2.8625e-014
lhumerus -40.1398 10.8914 79.2543
lradius 25.7917
lwrist 11.5136
lhand -16.6501 14.8002
lfingers 7.12502
lthumb 9.57294 44.5627
rfemur 3.93873 0.445478 34.4825
rtibia 26.3612
rfoot -23.8618 -10.2106
rtoes 4.75835
lfemur -25.8936 1.23012 -12.8209
ltibia 37.8435
lfoot -14.9788 14.6868
ltoes -14.9507
422
root -11.9539 16.7099 -6.6031 624.3 -97.5973 -627.982
lowerback 0.2502 0.904514 9.21736
upperback 2.04966 1.0795 0.445058
thorax 2.16125 0.68643 -4.68629
lowerneck -8.11411 -1.45733 0.843187
upperneck 4.22238 -2.28568 3.55601
head 2.80374 -1.0034 0.889739
rclavicle 2.10277e-014 -2.78299e-015
rhumerus -25.8489 2.27182 -88.1487
rradius 30.5754
rwrist 1.55733
rhand -19.2178 -5.38642
rfingers 7.12502
rthumb 7.09488 -35.2475
lclavicle 2.10277e-014 -2.78299e-015
lhumerus -40.2354 10.9446 79.129
lradius 25.8044
lwrist 11.5319
lhand -16.7094 14.846
lfingers 7.12502
lthumb 9.51577 44.6112
rfemur 4.89128 0.123873 34.5754
rtibia 25.3564
rfoot -23.756 -9.87536
rtoes 4.62409
lfemur -26.2428 1.54511 -12.8304
ltibia 35.5583
lfoot -14.8779 14.7079
ltoes -14.9659
423
root -12.1189 16.7032 -6.59786 625.962 -97.8407 -629.437
lowerback 0.0668763 0.984255 9.56297
upperback 2.03825 1.16097 0.464221
thorax 2.27456 0.737356 -4.8548
lowerneck -8.13646 -1.4522 0.848265
upperneck 4.22869 -2.27793 3.52707
head 2.80937 -1.00004 0.879746
rclavicle -2.2736e-015 1.35174e-014
rhumerus -25.5378 2.6133 -88.2835
rradius 30.9463
rwrist 1.30025
rhand -19.3248 -5.37184
rfingers 7.12502
rthumb 6.99165 -35.2364
lclavicle -2.2736e-015 1.35174e-014
lhumerus -40.301 11.0085 79.0017
lradius 25.7445
lwrist 11.5129
lhand -16.7625 14.8643
lfingers 7.12502
lthumb 9.46454 44.6318
rfemur 5.84903 -0.179283 34.7118
rtibia 24.303
rfoot -23.5896 -9.53527
rtoes 4.43259
lfemur -26.6124 1.93182 -12.7873
ltibia 33.3398
lfoot -14.7585 14.564
ltoes -15.1396
424
root -12.2843 16.6956 -6.59268 627.702 -98.1268 -630.958
lowerback -0.117382 1.07094 9.93709
upperback 2.02078 1.24949 0.495184
thorax 2.38486 0.791999 -5.02619
lowerneck -8.16695 -1.44826 0.853143
upperneck 4.23302 -2.27208 3.50099
head 2.81597 -0.99751 0.870582
rclavicle -4.46644e-015 -1.63003e-014
rhumerus -25.2484 2.95581 -88.4226
rradius 31.3083
rwrist 1.0461
rhand -19.441 -5.34544
rfingers 7.12502
rthumb 6.87943 -35.2137
lclavicle -4.46644e-015 -1.63003e-014
lhumerus -40.3352 11.0836 78.8704
lradius 25.6038
lwrist 11.4471
lhand -16.8093 14.838
lfingers 7.12502
lthumb 9.41935 44.6075
rfemur 6.81261 -0.445039 34.8839
rtibia 23.2149
rfoot -23.369 -9.19622
rtoes 4.21434
lfemur -27.007 2.4029 -12.7119
ltibia 31.2147
lfoot -14.6074 14.2304
ltoes -15.4605
425
root -12.4497 16.6872 -6.58767 629.469 -98.4331 -632.5
lowerback -0.295308 1.16173 10.3115
upperback 1.99974 1.34249 0.532312
thorax 2.48964 0.848597 -5.1906
lowerneck -8.20203 -1.44396 0.861857
upperneck 4.2306 -2.26618 3.47643
head 2.8211 -0.994929 0.861204
rclavicle 9.60378e-015 1.98785e-015
rhumerus -24.9771 3.29925 -88.5677
rradius 31.6566
rwrist 0.803516
rhand -19.5487 -5.31822
rfingers 7.12502
rthumb 6.77547 -35.1898
lclavicle 9.60378e-015 1.98785e-015
lhumerus -40.3376 11.174 78.7346
lradius 25.3811
lwrist 11.3224
lhand -16.8562 14.7579
lfingers 7.12502
lthumb 9.37414 44.5295
rfemur 7.77883 -0.668665 35.0708
rtibia 22.1107
rfoot -23.0966 -8.87125
rtoes 3.9354
lfemur -27.4274 2.96178 -12.636
ltibia 29.2035
lfoot -14.4282 13.6811
ltoes -15.8783
